<?xml version="1.0" encoding="utf-8"?>
<!-- Generator: Adobe Illustrator 16.0.0, SVG Export Plug-In . SVG Version: 6.00 Build 0)  -->
<!DOCTYPE svg PUBLIC "-//W3C//DTD SVG 1.1//EN" "http://www.w3.org/Graphics/SVG/1.1/DTD/svg11.dtd">
<svg version="1.1" id="Capa_1" xmlns="http://www.w3.org/2000/svg" xmlns:xlink="http://www.w3.org/1999/xlink" x="0px" y="0px"
	 width="1368px" height="936px" viewBox="0 0 1368 936" enable-background="new 0 0 1368 936" xml:space="preserve">
<g>
	<path fill="#FFFFFF" d="M1136.4,873.6h-858v-858c0-8.627-6.973-15.6-15.6-15.6c-8.626,0-15.6,6.973-15.6,15.6v858h-15.6
		c-8.627,0-15.6,6.974-15.6,15.601s6.973,15.6,15.6,15.6h15.6V920.4c0,8.627,6.973,15.6,15.6,15.6c8.627,0,15.6-6.973,15.6-15.6
		V904.8h858c8.627,0,15.6-6.973,15.6-15.6S1145.027,873.6,1136.4,873.6z"/>
	<path fill="#FFFFFF" d="M325.2,452.4h31.2c8.627,0,15.6-6.974,15.6-15.601s-6.973-15.6-15.6-15.6h-31.2
		c-8.627,0-15.6,6.973-15.6,15.6S316.573,452.4,325.2,452.4z"/>
	<path fill="#FFFFFF" d="M325.2,390h31.2c8.627,0,15.6-6.974,15.6-15.6c0-8.627-6.973-15.601-15.6-15.601h-31.2
		c-8.627,0-15.6,6.974-15.6,15.601C309.6,383.026,316.573,390,325.2,390z"/>
	<path fill="#FFFFFF" d="M325.2,327.6h31.2c8.627,0,15.6-6.973,15.6-15.6s-6.973-15.6-15.6-15.6h-31.2
		c-8.627,0-15.6,6.973-15.6,15.6S316.573,327.6,325.2,327.6z"/>
	<path fill="#FFFFFF" d="M325.2,265.2h31.2c8.627,0,15.6-6.974,15.6-15.6c0-8.627-6.973-15.6-15.6-15.6h-31.2
		c-8.627,0-15.6,6.973-15.6,15.6C309.6,258.227,316.573,265.2,325.2,265.2z"/>
	<path fill="#FFFFFF" d="M325.2,202.8h31.2c8.627,0,15.6-6.973,15.6-15.6c0-8.627-6.973-15.6-15.6-15.6h-31.2
		c-8.627,0-15.6,6.973-15.6,15.6C309.6,195.827,316.573,202.8,325.2,202.8z"/>
	<path fill="#FFFFFF" d="M325.2,140.4h31.2c8.627,0,15.6-6.973,15.6-15.6c0-8.626-6.973-15.6-15.6-15.6h-31.2
		c-8.627,0-15.6,6.973-15.6,15.6C309.6,133.427,316.573,140.4,325.2,140.4z"/>
	<path fill="#FFFFFF" d="M325.2,78h31.2c8.627,0,15.6-6.973,15.6-15.6c0-8.626-6.973-15.6-15.6-15.6h-31.2
		c-8.627,0-15.6,6.974-15.6,15.6C309.6,71.027,316.573,78,325.2,78z"/>
	<path fill="#FFFFFF" d="M387.803,764.197c51.62,0,93.6-41.979,93.6-93.6c0-24.165-9.281-46.146-24.367-62.775l55.006-55.005
		c16.614,15.101,38.595,24.383,62.759,24.383c24.165,0,46.146-9.282,62.774-24.367l70.793,70.793
		C693.282,640.255,684,662.235,684,686.4c0,51.62,41.979,93.6,93.6,93.6c51.621,0,93.601-41.979,93.601-93.6
		c0-16.146-4.103-31.341-11.326-44.616l135.767-135.767c16.614,15.101,38.595,24.383,62.76,24.383c51.62,0,93.6-41.98,93.6-93.601
		s-41.979-93.6-93.6-93.6c-51.621,0-93.601,41.979-93.601,93.6c0,16.146,4.103,31.341,11.326,44.616L840.359,617.183
		c-16.614-15.101-38.595-24.383-62.76-24.383c-16.146,0-31.34,4.103-44.615,11.326L657.059,528.2
		c7.238-13.26,11.342-28.454,11.342-44.601c0-51.62-41.98-93.6-93.601-93.6s-93.6,41.979-93.6,93.6
		c0,16.146,4.103,31.341,11.325,44.616l-60.122,60.123c-13.275-7.224-28.47-11.326-44.616-11.326c-51.62,0-93.6,41.979-93.6,93.601
		C294.187,722.233,336.183,764.197,387.803,764.197z M1058.4,374.4c34.413,0,62.399,27.986,62.399,62.399
		c0,34.414-27.986,62.4-62.399,62.4c-34.414,0-62.4-27.986-62.4-62.4C996,402.387,1023.986,374.4,1058.4,374.4z M840,686.4
		c0,34.413-27.986,62.399-62.4,62.399c-34.413,0-62.399-27.986-62.399-62.399c0-34.414,27.986-62.4,62.399-62.4
		C812.014,624,840,651.986,840,686.4z M574.8,421.2c34.414,0,62.4,27.986,62.4,62.399c0,34.414-27.986,62.4-62.4,62.4
		c-34.413,0-62.399-27.986-62.399-62.4C512.4,449.187,540.387,421.2,574.8,421.2z M387.803,608.197c34.414,0,62.4,27.986,62.4,62.4
		c0,34.413-27.986,62.399-62.4,62.399c-34.414,0-62.4-27.986-62.4-62.399C325.403,636.184,353.389,608.197,387.803,608.197z"/>
</g>
</svg>
