<?xml version="1.0" encoding="utf-8"?>
<!-- Generator: Adobe Illustrator 16.0.0, SVG Export Plug-In . SVG Version: 6.00 Build 0)  -->
<!DOCTYPE svg PUBLIC "-//W3C//DTD SVG 1.1//EN" "http://www.w3.org/Graphics/SVG/1.1/DTD/svg11.dtd">
<svg version="1.1" id="Capa_1" xmlns="http://www.w3.org/2000/svg" xmlns:xlink="http://www.w3.org/1999/xlink" x="0px" y="0px"
	 width="276.5px" height="254px" viewBox="0 0 276.5 254" enable-background="new 0 0 276.5 254" xml:space="preserve">
<g>
	<g>
		<path fill="#F2F2F2" d="M269.168,30.843c0.993,0.916,1.561,2.237,1.561,3.571v6.9c0,1.329-0.567,2.657-1.561,3.573l-6.577,5.99
			l6.577,6.055c0.993,0.934,1.561,2.25,1.561,3.585v8.647c0,1.323-0.567,2.579-1.561,3.489l-7.75,7.233
			c-0.911,0.833-2.078,1.245-3.336,1.245h-37.547c-1.167,0-2.322-0.413-3.245-1.245l-8.562-7.904
			c-0.909-0.909-1.003-2.489-0.08-3.404c0.909-0.992,2.406-1.077,3.321-0.16l8.563,7.887h37.652l7.725-7.14v-8.647l-7.828-7.152
			h-26.754c-1.315,0-2.396-1.071-2.396-2.405v-0.084c0-1.329,1.082-2.412,2.396-2.412h26.857l7.725-7.151v-6.9l-7.828-7.234h-37.547
			l-8.563,7.906c-0.915,0.902-2.412,0.826-3.321-0.091c-0.924-0.993-0.831-2.49,0.078-3.404l8.563-7.9
			c0.921-0.818,2.076-1.251,3.245-1.251h37.547c1.258,0,2.425,0.433,3.334,1.251L269.168,30.843z"/>
	</g>
	<path fill="#5080CC" d="M109,22.439l-99,69.86V227h198V92.299L109,22.439z M95.333,111.954l27.057,32.106l42.046-36.771
		l-9.256-1.593l-0.6-6.641l20.851,1.934l-1.104,21.797l-6.384-0.275l0.241-10.304l-46.65,39.58l-0.008-0.148l-25.553-30.612
		L49.176,174h-8.584L95.333,111.954z M184.95,195.507c0,0-110.668,0.119-147.557-0.01c-5.672-0.021-5.044-6.368,0.208-6.368
		l148.234,0.018C188.712,189.129,188.712,195.507,184.95,195.507z"/>
</g>
</svg>
