<?xml version="1.0" encoding="utf-8"?>
<!-- Generator: Adobe Illustrator 16.0.0, SVG Export Plug-In . SVG Version: 6.00 Build 0)  -->
<!DOCTYPE svg PUBLIC "-//W3C//DTD SVG 1.1//EN" "http://www.w3.org/Graphics/SVG/1.1/DTD/svg11.dtd">
<svg version="1.1" id="Layer_1" xmlns="http://www.w3.org/2000/svg" xmlns:xlink="http://www.w3.org/1999/xlink" x="0px" y="0px"
	 width="1368px" height="936px" viewBox="0 0 1368 936" enable-background="new 0 0 1368 936" xml:space="preserve">
<g transform="translate(1 1)">
	<g>
		<g>
			<path fill="#FFFFFF" d="M1089.657,571.43L845.506,327.278c18.355-32.019,27.557-67.977,27.557-103.947
				c0-114.487-94.374-208.861-208.859-208.861c-27.451,0-53.682,4.885-78.698,15.707C552.861,10.408,514.652-1,473.908-1
				C354.782-1,257.313,96.468,257.313,215.595c0,79.748,43.683,149.781,108.297,187.372v439.206c0,4.642,1.546,9.282,6.188,12.377
				l92.828,77.355c1.546,1.547,6.188,3.095,9.282,3.095s7.736-1.547,7.736-3.095l92.827-77.355
				c4.641-3.095,6.188-7.735,6.188-12.377V811.23c0-4.642-1.547-7.736-4.642-10.829l-51.054-51.054l43.319-43.319
				c6.188-6.188,6.188-15.471,0-21.66l-43.319-43.319l12.35-12.351l247.564,249.057c12.378,10.829,26.302,17.019,41.771,18.564
				c0,0,1.547,0,3.095,0c15.471,0,29.396-4.641,38.679-15.47l224.331-225.878C1115.958,633.314,1112.863,594.638,1089.657,571.43z
				 M664.203,45.413c97.469,0,177.919,80.45,177.919,177.918c0,28.172-6.812,56.331-19.621,81.432
				c-18.416-15.622-40.62-24.946-63.922-28.83l-73.272-11.102c3.643-16.412,5.2-32.824,5.2-49.234
				c0-64.92-28.952-123.403-74.575-163.189C631.663,47.877,647.626,45.413,664.203,45.413z M288.256,215.595
				c0-102.109,83.544-185.652,185.652-185.652c102.107,0,185.652,83.544,185.652,185.652c0,14.827-1.452,29.652-5.655,44.478
				l-99.548-15.083c-21.933-2.437-42.888,1.875-59.879,12.874c-2.322-11.72-3.552-23.78-3.552-36.08c0-2.868,0-5.734,0-8.603
				c25.827-7.441,44.866-31.333,44.866-59.47c0-34.037-27.848-61.885-61.885-61.885s-61.885,27.848-61.885,61.885
				c0,28.804,19.947,53.172,46.709,59.984c-0.285,3.091-0.295,6.114-0.295,9.637c0,21.646,3.265,42.852,9.421,63.037
				c-6.794,12.045-10.554,25.768-10.576,40.249c-0.104,5.194,0.264,10.488,1.155,15.841l5.801,36.741l3.34,22.042
				C368.628,398.073,288.256,316.108,288.256,215.595z M504.851,153.71c0,8.545-3.515,16.307-9.165,21.922
				c2.211-9.05,5.145-17.848,8.812-26.327C504.707,150.748,504.851,152.211,504.851,153.71z M463.376,182.756
				c-11.865-4.337-20.408-15.727-20.408-29.046c0-17.019,13.924-30.942,30.942-30.942c3.182,0,6.254,0.488,9.147,1.39
				C473.906,142.606,467.339,162.275,463.376,182.756z M537.339,695.199l-43.319,43.319c-6.188,6.188-6.188,15.471,0,21.66
				l57.243,57.243v17.019l-77.354,64.978l-77.355-64.978h1.547V426.002c9.359,3.743,19.23,6.721,29.396,8.954v371.635
				c0,9.283,6.188,15.471,15.471,15.471s15.47-7.736,15.47-15.471V439.382c4.986,0.347,9.992,0.527,15.003,0.538l15.939,105.208
				c0.423,2.527,0.946,5.036,1.518,7.535l0.029,0.201c3.095,20.111,10.829,40.225,23.206,57.243L494.02,630.22
				c-6.188,6.188-6.188,15.47,0,21.659L537.339,695.199z M1071.092,633.314l-224.33,224.33c-4.642,4.642-10.829,6.188-18.565,6.188
				s-15.471-3.095-21.66-9.283L549.717,597.73c-15.471-15.471-26.301-35.584-29.396-57.243l-18.712-123.503
				c0.142-1.589,0.147-3.247,0.147-4.906l-10.638-74.454c18.486,29.68,44.264,55.045,75.894,73.357
				c-0.177,1.891-0.278,3.803-0.278,5.738c0,34.037,27.848,61.885,61.885,61.885s61.885-27.848,61.885-61.885
				c0-34.038-27.848-61.885-61.885-61.885c-20.062,0-37.967,9.679-49.292,24.594c-34.208-21.416-60.051-52.075-74.702-87.784
				c0.077-0.078,0.149-0.164,0.227-0.242c3.755-3.755,8.267-6.934,13.253-9.38c6.939-3.024,14.383-4.543,22.33-4.543
				c3.096,0,6.188,0,7.736,0l19.764,2.995l94.724,15.572c1.709,0,3.336-0.16,4.879-0.479l84.854,12.856
				c21.659,3.095,41.771,13.924,57.243,29.396l258.366,256.82C1078.828,605.467,1080.375,624.031,1071.092,633.314z
				 M650.557,438.479c-5.615,5.661-13.384,9.184-21.938,9.184c-13.778,0-25.521-9.13-29.495-21.635
				C615.71,432.175,633.016,436.418,650.557,438.479z M607.791,393.936c5.512-5.045,12.814-8.158,20.829-8.158
				c13.419,0,24.884,8.672,29.146,20.679C640.767,404.694,624.233,400.521,607.791,393.936z"/>
			<path fill="#FFFFFF" d="M917.929,668.897l-99.015,99.015c-6.188,6.188-6.188,15.471,0,21.66
				c3.095,3.095,6.188,4.642,10.828,4.642c4.642,0,7.736-1.547,10.829-4.642l99.015-99.015c6.188-6.188,6.188-15.471,0-21.66
				C933.4,662.71,924.118,662.71,917.929,668.897z"/>
			<path fill="#FFFFFF" d="M859.139,668.897c-6.188-6.188-15.471-6.188-21.66,0l-64.979,64.979c-6.188,6.188-6.188,15.471,0,21.66
				c3.095,3.095,6.188,4.642,10.829,4.642s7.736-1.547,10.829-3.095l64.978-66.526C865.326,684.368,865.326,675.086,859.139,668.897
				z"/>
			<path fill="#FFFFFF" d="M846.762,591.543c-6.188-6.188-15.471-6.188-21.66,0l-99.015,99.015c-6.188,6.188-6.188,15.47,0,21.66
				c3.095,3.095,6.188,4.641,10.829,4.641c4.641,0,7.735-1.546,10.828-4.641l99.016-99.016
				C852.951,607.013,852.951,597.73,846.762,591.543z"/>
		</g>
	</g>
</g>
</svg>
