<?xml version="1.0" encoding="utf-8"?>
<!-- Generator: Adobe Illustrator 16.0.0, SVG Export Plug-In . SVG Version: 6.00 Build 0)  -->
<!DOCTYPE svg PUBLIC "-//W3C//DTD SVG 1.1//EN" "http://www.w3.org/Graphics/SVG/1.1/DTD/svg11.dtd">
<svg version="1.1" id="Capa_1" xmlns="http://www.w3.org/2000/svg" xmlns:xlink="http://www.w3.org/1999/xlink" x="0px" y="0px"
	 width="1290px" height="254px" viewBox="0 0 1290 254" enable-background="new 0 0 1290 254" xml:space="preserve">
<g>
	<path fill="#EFEFEF" d="M248.785,166.932c-0.934,0-1.693,0.752-1.693,1.692c0,0.93,0.759,1.691,1.693,1.691h63.018
		c0.928,0,1.686-0.762,1.686-1.691c0-0.94-0.758-1.692-1.686-1.692h-29.824V96.567h29.824c0.928,0,1.686-0.752,1.686-1.688
		c0-0.935-0.758-1.691-1.686-1.691h-63.018c-0.934,0-1.693,0.757-1.693,1.691c0,0.935,0.759,1.688,1.693,1.688h29.816v70.364
		H248.785z"/>
	<path fill="#EFEFEF" d="M337.293,96.428l57.861,73.244c0.29,0.412,0.818,0.644,1.347,0.644h11.182c0.934,0,1.692-0.762,1.692-1.691
		V94.88c0-0.935-0.758-1.691-1.692-1.691c-0.927,0-1.685,0.757-1.685,1.691v72.052h-8.671l-0.48-0.6l-57.379-72.509
		c-0.352-0.409-0.82-0.635-1.354-0.635h-10.729c-0.928,0-1.685,0.757-1.685,1.691v73.744c0,0.93,0.757,1.691,1.685,1.691
		c0.934,0,1.692-0.762,1.692-1.691V96.603L337.293,96.428z"/>
	<path fill="#EFEFEF" d="M423.265,92.727c-0.927,0-1.685,0.762-1.685,1.696v18.292c0,0.326,0.101,0.583,0.21,0.678l40.714,56.217
		c0.669,0.896,1.957,1.057,2.755-0.018l40.531-56c0.266-0.287,0.372-0.561,0.372-0.991V94.423c0-0.935-0.757-1.696-1.691-1.696
		c-0.927,0-1.686,0.762-1.686,1.696v17.675l-38.859,53.69l-38.961-53.686V94.423C424.964,93.489,424.205,92.727,423.265,92.727z"/>
	<path fill="#EFEFEF" d="M520.06,94.198c-0.929,0-1.679,0.761-1.679,1.7v72.838c0,0.831,0.785,1.579,1.679,1.579h58.501
		c1.327,0,2.485-0.443,3.283-1.23l10.668-9.76c0.276-0.287,0.481-0.774,0.481-1.267c0-0.243-0.054-0.716-0.42-1.074
		c-0.624-0.683-1.36-1.152-2.43-0.187l-10.958,10.251h-57.428v-33.109h57.143c0.9,0,1.576-0.727,1.576-1.692
		c0-0.953-0.676-1.679-1.576-1.679h-57.143V97.589h57.421l10.971,10.121c1.063,0.979,1.835,0.474,2.37-0.126
		c0.397-0.392,0.474-0.796,0.474-1.079c0-0.457-0.205-0.909-0.535-1.248l-10.566-9.785c-0.84-0.835-1.997-1.274-3.332-1.274H520.06z
		"/>
	<path fill="#EFEFEF" d="M678.883,167h-9.828l-14.427-29h10.79c1.323,0,2.492-0.661,3.279-1.457l9.725-9.866
		c0.918-0.912,0.578-2.459,0.578-3.79v-14.013c0-1.331,0.34-2.766-0.63-3.731l-10.091-10.263c-0.838-0.839-1.538-1.881-2.861-1.881
		H606.91c-0.961,0-1.91,1.88-1.91,2.767v72.857c0,0.93,1.078,1.691,2,1.691c0.935,0,2-0.762,2-1.691V138h41.937l15.23,30.705
		c0.078,0.219,0.125,0.08,0.369,0.328c0.853,0.774,2.04,0.967,3.284,0.967h9.711c0.74,0,1.37-0.282,1.592-0.936L678.883,167z
		 M609,133V99h57.049l10.449,9.951l0.12,14.224l-11.2,9.825H609z"/>
	<path fill="#EFEFEF" d="M695.184,155.336c-0.482,0-0.943,0.209-1.286,0.579c-0.632,0.64-0.575,1.783,0.081,2.436l11.583,10.69
		c0.965,0.782,2.213,1.274,3.34,1.274h50.132c1.335,0,2.53-0.448,3.458-1.283l10.481-9.812c1.082-0.991,1.643-2.266,1.643-3.697
		v-12.538c0-1.37-0.607-2.753-1.631-3.684l-10.506-9.851c-0.915-0.813-2.11-1.257-3.445-1.257h-50.758l-11.475-10.598v-10.765
		l11.465-10.729h52.303l0.561,0.44l11.518,10.72c0.67,0.622,1.752,0.561,2.388-0.135c0.316-0.317,0.47-0.73,0.451-1.161
		c-0.004-0.444-0.183-0.856-0.465-1.113l-11.643-10.729c-0.974-0.896-2.201-1.396-3.444-1.396h-50.937
		c-1.244,0-2.437,0.487-3.453,1.405l-10.481,9.698c-1.078,0.983-1.641,2.262-1.641,3.697v9.259c0,1.436,0.562,2.706,1.632,3.684
		l10.512,9.716c0.961,0.878,2.18,1.387,3.336,1.387h50.75l11.585,10.603v14.043l-0.513,0.578l-11.072,10.134h-51.386l-11.98-11.151
		C695.901,155.419,695.476,155.336,695.184,155.336z"/>
	<path fill="#EFEFEF" d="M787.158,166.932c-0.93,0-1.687,0.752-1.687,1.692c0,0.93,0.757,1.691,1.687,1.691h63.019
		c0.928,0,1.684-0.762,1.684-1.691c0-0.94-0.756-1.692-1.684-1.692h-29.817V96.567h29.817c0.928,0,1.684-0.752,1.684-1.688
		c0-0.935-0.756-1.691-1.684-1.691h-63.019c-0.93,0-1.687,0.757-1.687,1.691c0,0.935,0.757,1.688,1.687,1.688h29.822v70.364H787.158
		z"/>
	<path fill="#EFEFEF" d="M946.171,108.771l-0.144-0.861l0.069-0.273c0.113-0.504-0.082-1.11-0.513-1.484L944.627,105
		c-0.005,0-0.005,0-0.005,0c-0.033,0-0.14-0.009-0.227-0.135l-10.354-9.424c-0.849-0.848-1.915-1.285-3.229-1.376l-51.276,0.015
		c-0.121,0-0.295,0.004-0.391,0.03c-1.218,0.148-2.044,0.568-2.956,1.386l-11.613,10.704c-0.365,0.379-1.956,48.321-1.956,48.321
		c0.704,2.28,1.452,3.113,1.874,3.522l1.359,1.156l10.486,9.725c0.853,0.844,1.852,1.305,3.151,1.4l51.139-0.009
		c0.079,0,0.153-0.031,0.231-0.039l0.648-0.073c0.834-0.157,1.77-0.605,2.548-1.301l11.498-10.698c0.46-0.41,0.653-0.937,0.54-1.441
		c-0.034-0.617,0-0.856,0.048-1.079L946.171,108.771z M942.3,156.941l-11.09,10.104l-51.295,0.186l-13.642-13.825l2.098-45.599
		L878.921,99h52.289l1.211-0.349l9.94,8.987L942.3,156.941z"/>
	<path fill="#EFEFEF" d="M969.97,96.428l57.86,73.244c0.3,0.412,0.826,0.644,1.353,0.644h11.182c0.931,0,1.687-0.762,1.687-1.691
		V94.88c0-0.935-0.756-1.691-1.687-1.691s-1.684,0.757-1.684,1.691v72.052h-8.677l-0.474-0.6l-57.373-72.509
		c-0.361-0.409-0.836-0.635-1.362-0.635h-10.733c-0.93,0-1.679,0.757-1.679,1.691v73.744c0,0.93,0.749,1.691,1.679,1.691
		c0.932,0,1.692-0.762,1.692-1.691V96.603L969.97,96.428z"/>
	<path fill="#EFEFEF" d="M1055.955,94.198c-0.935,0-1.691,0.761-1.691,1.7v72.838c0,0.831,0.791,1.579,1.691,1.579h58.504
		c1.326,0,2.484-0.443,3.28-1.235l10.668-9.755c0.604-0.609,0.656-1.753,0.062-2.353c-0.622-0.666-1.375-1.148-2.445-0.174
		l-10.941,10.251h-57.443v-33.109h57.155c0.896,0,1.565-0.727,1.565-1.692c0-0.953-0.67-1.679-1.565-1.679h-57.155V97.589h57.434
		l10.969,10.121c0.67,0.617,1.731,0.565,2.388-0.126c0.635-0.644,0.583-1.67-0.073-2.332l-10.582-9.781
		c-0.817-0.831-1.988-1.274-3.314-1.274H1055.955z"/>
	<path fill="#EFEFEF" d="M1142.867,155.336c-0.481,0-0.93,0.205-1.265,0.579c-0.426,0.422-0.469,0.926-0.461,1.191
		c0.014,0.475,0.2,0.927,0.526,1.24l11.589,10.694c0.962,0.782,2.193,1.274,3.328,1.274h50.138c1.347,0,2.534-0.448,3.448-1.283
		l10.503-9.812c1.07-0.991,1.631-2.266,1.631-3.697v-12.538c0-1.37-0.6-2.753-1.631-3.684l-10.512-9.851
		c-0.905-0.813-2.093-1.257-3.439-1.257h-50.764l-11.469-10.598v-10.765l11.461-10.729h52.301l0.569,0.44l11.526,10.72
		c1.043,0.97,1.822,0.465,2.393-0.135c0.403-0.417,0.447-0.896,0.438-1.152c0-0.444-0.175-0.865-0.461-1.122l-11.643-10.729
		c-1.001-0.909-2.191-1.396-3.444-1.396h-50.938c-1.243,0-2.462,0.5-3.444,1.405l-10.503,9.698
		c-1.069,0.983-1.627,2.258-1.627,3.697v9.259c0,1.436,0.558,2.706,1.627,3.684l10.511,9.716c0.962,0.878,2.172,1.387,3.328,1.387
		h50.755l11.603,10.603v14.043l-0.521,0.578l-11.081,10.134h-51.389l-11.974-11.151
		C1143.664,155.498,1143.281,155.336,1142.867,155.336z"/>
	<g>
		<path fill="#5080CC" d="M1279.334,98.242c0.67,0.618,1.053,1.509,1.053,2.409v4.654c0,0.896-0.383,1.792-1.053,2.41l-4.436,4.04
			l4.436,4.084c0.67,0.63,1.053,1.518,1.053,2.418v5.832c0,0.892-0.383,1.739-1.053,2.353l-5.227,4.879
			c-0.614,0.561-1.401,0.839-2.249,0.839h-25.325c-0.787,0-1.566-0.278-2.188-0.839l-5.775-5.332
			c-0.613-0.613-0.676-1.679-0.053-2.296c0.613-0.669,1.623-0.726,2.24-0.108l5.775,5.319h25.395l5.21-4.815v-5.832l-5.279-4.824
			h-18.045c-0.887,0-1.617-0.722-1.617-1.622v-0.057c0-0.896,0.73-1.627,1.617-1.627h18.114l5.21-4.823v-4.654l-5.279-4.879h-25.325
			l-5.775,5.332c-0.617,0.609-1.627,0.557-2.24-0.061c-0.623-0.67-0.561-1.679,0.053-2.296l5.775-5.328
			c0.621-0.552,1.4-0.844,2.188-0.844h25.325c0.848,0,1.635,0.292,2.249,0.844L1279.334,98.242z"/>
	</g>
	<g>
		<path fill="#EFEFEF" d="M258.667,193.631h-12.834c-0.819,0-1.488-0.661-1.488-1.483c0-0.825,0.669-1.496,1.488-1.496h28.653
			c0.819,0,1.488,0.671,1.488,1.496c0,0.822-0.669,1.483-1.488,1.483h-12.84v30.553h12.84c0.819,0,1.488,0.669,1.488,1.496
			c0,0.813-0.669,1.486-1.488,1.486h-28.653c-0.819,0-1.488-0.673-1.488-1.486c0-0.827,0.669-1.496,1.488-1.496h12.834V193.631z"/>
		<path fill="#EFEFEF" d="M332.366,192.147v33.532c0,0.813-0.669,1.486-1.489,1.486h-5.083c-0.459,0-0.928-0.204-1.184-0.565
			l-26.087-33.019l-2.667,0.049v32.049c0,0.813-0.671,1.486-1.49,1.486c-0.818,0-1.49-0.673-1.49-1.486v-33.532
			c0-0.825,0.671-1.496,1.49-1.496h4.881c0.46,0,0.88,0.214,1.178,0.565l26.087,32.967h2.876v-32.036
			c0-0.825,0.664-1.496,1.489-1.496C331.697,190.651,332.366,191.322,332.366,192.147z"/>
		<path fill="#EFEFEF" d="M368.018,226.553l-18.439-25.472c-0.21-0.204-0.311-0.518-0.311-0.821v-8.32
			c0-0.817,0.663-1.492,1.496-1.492c0.812,0,1.482,0.675,1.482,1.492v7.806l17.004,23.416l16.942-23.416v-7.806
			c0-0.817,0.669-1.492,1.481-1.492c0.827,0,1.496,0.675,1.496,1.492v8.263c0,0.361-0.107,0.675-0.304,0.879l-18.444,25.472
			c-0.305,0.409-0.718,0.613-1.171,0.613C368.728,227.166,368.322,226.962,368.018,226.553z"/>
		<path fill="#EFEFEF" d="M436.166,226.397c-0.514,0.513-1.238,0.769-2.003,0.769h-26.607c-0.813,0-1.476-0.673-1.476-1.439V209.14
			v-16.535c0-0.822,0.663-1.482,1.476-1.482h26.607c0.765,0,1.49,0.251,2.003,0.764l4.827,4.468c0.561,0.57,0.615,1.495,0.047,2.053
			c-0.555,0.622-1.488,0.669-2.105,0.104l-4.772-4.414h-25.105v13.551h25.261c0.812,0,1.435,0.68,1.435,1.492
			c0,0.831-0.623,1.497-1.435,1.497h-25.261v13.604h25.105l4.772-4.463c0.617-0.564,1.55-0.518,2.105,0.101
			c0.568,0.561,0.514,1.535-0.047,2.104L436.166,226.397z"/>
		<path fill="#EFEFEF" d="M492.862,227.166h-4.415c-0.724,0-1.441-0.256-2.003-0.769c-0.156-0.152-0.249-0.302-0.311-0.456
			l-6.728-13.67H461.34v13.408c0,0.813-0.679,1.486-1.496,1.486c-0.82,0-1.49-0.673-1.49-1.486v-33.128
			c0-0.821,0.669-1.43,1.49-1.43h26.601c0.773,0,1.497,0.251,2.003,0.764l4.821,4.411c0.568,0.569,0.926,1.388,0.926,2.214v6.367
			c0,0.822-0.358,1.643-0.926,2.209l-4.821,4.419c-0.506,0.513-1.23,0.766-2.003,0.766h-3.75l5.85,11.912h4.318l1.496,1.496
			C494.358,226.493,493.68,227.166,492.862,227.166z M486.445,209.344v-0.048l4.771-4.362c0-0.056,0.054-0.056,0.054-0.056
			l-0.054-6.367l-4.771-4.467H461.34v15.3H486.445z"/>
		<path fill="#EFEFEF" d="M549.558,196.145c0.576,0.518,0.624,1.496,0.054,2.062c-0.555,0.616-1.489,0.664-2.105,0.1l-5.238-4.875
			h-0.047h-23.164h-0.047l-4.778,4.466v4.21v0.047l4.778,4.416h22.798c0.771,0,1.489,0.261,2.05,0.777l4.779,4.463
			c0.616,0.564,0.975,1.387,0.975,2.205v5.701c0,0.874-0.359,1.647-0.975,2.209l-4.779,4.472c-0.561,0.513-1.279,0.769-2.05,0.769
			h-22.798c-0.717,0-1.435-0.308-2.009-0.769l-5.28-4.88c-0.561-0.57-0.622-1.54-0.055-2.104c0.562-0.614,1.49-0.671,2.112-0.104
			l5.232,4.875h22.798l4.825-4.406v-0.061v-5.745l-4.825-4.409h-22.798c-0.717,0-1.435-0.318-2.009-0.831l-4.773-4.42
			c-0.616-0.564-0.975-1.331-0.975-2.204v-4.21c0-0.883,0.359-1.639,0.975-2.21l4.773-4.414c0.574-0.514,1.292-0.826,2.057-0.826
			h23.164c0.771,0,1.489,0.312,2.057,0.826L549.558,196.145z"/>
		<path fill="#EFEFEF" d="M580.234,193.631h-12.847c-0.817,0-1.49-0.661-1.49-1.483c0-0.825,0.672-1.496,1.49-1.496h28.652
			c0.833,0,1.496,0.671,1.496,1.496c0,0.822-0.663,1.483-1.496,1.483h-12.832v30.553h12.832c0.833,0,1.496,0.669,1.496,1.496
			c0,0.813-0.663,1.486-1.496,1.486h-28.652c-0.817,0-1.49-0.673-1.49-1.486c0-0.827,0.672-1.496,1.49-1.496h12.847V193.631z"/>
		<path fill="#EFEFEF" d="M652.693,196.771c0.399,0.352,0.557,0.87,0.462,1.339l0.047,0.354v21.254c0,0.161-0.047,0.261-0.047,0.418
			c0.095,0.456-0.062,0.974-0.462,1.335l-5.246,4.875c-0.461,0.413-1.021,0.67-1.643,0.774c-0.086,0-0.252,0.047-0.413,0.047
			h-23.203h-0.109c-0.718-0.047-1.383-0.308-1.896-0.821l-4.771-4.419c-0.104-0.047-0.166-0.1-0.205-0.195l-0.318-0.261
			c-0.361-0.361-0.514-0.879-0.452-1.335v-0.357v-21.267v-0.401c-0.062-0.469,0.091-0.987,0.452-1.339l5.293-4.885
			c0.461-0.417,0.975-0.717,1.604-0.764c0.144-0.057,0.292-0.057,0.4-0.057h23.203h0.161c0.717,0.057,1.387,0.308,1.895,0.82
			l4.78,4.373c0.052,0.095,0.148,0.146,0.209,0.251L652.693,196.771z M650.231,219.717v-21.254l-4.779-4.419h-0.061h-23.203
			l-4.775,4.467v21.206l4.775,4.467h23.203L650.231,219.717z"/>
		<path fill="#EFEFEF" d="M709.601,192.147v33.532c0,0.813-0.67,1.486-1.49,1.486h-5.081c-0.47,0-0.931-0.204-1.187-0.565
			l-26.087-33.019l-2.674,0.049v32.049c0,0.813-0.662,1.486-1.483,1.486c-0.817,0-1.487-0.673-1.487-1.486v-33.532
			c0-0.825,0.67-1.496,1.487-1.496h4.88c0.457,0,0.87,0.214,1.174,0.565l26.091,32.967h2.87v-32.036
			c0-0.825,0.671-1.496,1.497-1.496C708.931,190.651,709.601,191.322,709.601,192.147z"/>
		<path fill="#EFEFEF" d="M756.589,226.397c-0.514,0.513-1.231,0.769-2.006,0.769h-26.598c-0.814,0-1.483-0.673-1.483-1.439V209.14
			v-16.535c0-0.822,0.669-1.482,1.483-1.482h26.598c0.774,0,1.492,0.251,2.006,0.764l4.832,4.468
			c0.557,0.57,0.608,1.495,0.048,2.053c-0.553,0.622-1.488,0.669-2.105,0.104l-4.78-4.414h-25.111v13.551h25.265
			c0.826,0,1.439,0.68,1.439,1.492c0,0.831-0.613,1.497-1.439,1.497h-25.265v13.604h25.111l4.78-4.463
			c0.617-0.564,1.553-0.518,2.105,0.101c0.561,0.561,0.509,1.535-0.048,2.104L756.589,226.397z"/>
		<path fill="#EFEFEF" d="M817.098,196.145c0.562,0.518,0.609,1.496,0.043,2.062c-0.564,0.616-1.485,0.664-2.095,0.1l-5.245-4.875
			h-0.058H786.59h-0.049l-4.78,4.466v4.21v0.047l4.78,4.416h22.798c0.77,0,1.488,0.261,2.049,0.777l4.779,4.463
			c0.618,0.564,0.974,1.387,0.974,2.205v5.701c0,0.874-0.355,1.647-0.974,2.209l-4.779,4.472c-0.561,0.513-1.279,0.769-2.049,0.769
			h-22.798c-0.722,0-1.438-0.308-2.005-0.769l-5.292-4.88c-0.566-0.57-0.613-1.54-0.053-2.104c0.569-0.614,1.487-0.671,2.097-0.104
			l5.253,4.875h22.798l4.828-4.406v-0.061v-5.745l-4.828-4.409h-22.798c-0.722,0-1.438-0.318-2.005-0.831l-4.775-4.42
			c-0.617-0.564-0.978-1.331-0.978-2.204v-4.21c0-0.883,0.36-1.639,0.978-2.21l4.775-4.414c0.566-0.514,1.283-0.826,2.054-0.826
			h23.153c0.775,0,1.497,0.312,2.058,0.826L817.098,196.145z"/>
		<path fill="#EFEFEF" d="M910.461,196.866c0.456,0.57,0.77,1.287,0.77,2.059v26.802c0,0.826-0.665,1.439-1.488,1.439
			c-0.821,0-1.481-0.613-1.481-1.439v-13.352H879.96v13.352c0,0.826-0.674,1.439-1.492,1.439c-0.77,0-1.436-0.613-1.436-1.439
			v-26.802c0-0.771,0.253-1.488,0.767-2.059l4.419-4.719c0.565-0.613,1.335-0.931,2.209-0.931h19.41
			c0.826,0,1.648,0.317,2.161,0.931L910.461,196.866z M879.96,198.925v10.477h28.301v-10.477l-4.377-4.776
			c0-0.052-0.047-0.052-0.047-0.052h-19.41c-0.057,0-0.057,0-0.057,0.052l-4.35,4.776H879.96z M879.96,209.709
			c0.061,0,0.061-0.047,0-0.047V209.709z M879.96,212.229c0.061-0.053,0.061-0.053,0-0.157V212.229z M908.261,209.662
			c-0.062,0-0.062,0.047,0,0.047V209.662z M908.261,212.071c-0.062,0.104-0.062,0.104,0,0.157V212.071z"/>
		<path fill="#EFEFEF" d="M956.891,226.397c-0.564,0.513-1.282,0.769-2.057,0.769h-18.953c-0.766,0-1.482-0.256-2-0.769
			l-4.823-4.415c-0.614-0.569-0.927-1.392-0.927-2.205v-27.838c0-0.817,0.665-1.492,1.443-1.492c0.818,0,1.475,0.675,1.475,1.492
			v27.838l4.832,4.406h19.01l5.236-4.875c0.609-0.566,1.539-0.51,2.105,0.104c0.561,0.564,0.509,1.534-0.101,2.104L956.891,226.397z
			"/>
		<path fill="#EFEFEF" d="M1030.905,227.166c-0.775,0-1.492-0.256-2.015-0.769l-4.818-4.415c-0.612-0.569-0.931-1.392-0.931-2.205
			v-21.267c0-0.826,0.318-1.645,0.931-2.214l4.818-4.411c0.522-0.513,1.239-0.764,2.015-0.764h23.215
			c0.77,0,1.475,0.251,1.996,0.764l5.294,4.885c0.604,0.558,0.664,1.483,0.095,2.101s-1.487,0.617-2.105,0.054l-5.279-4.881h-23.215
			l-4.837,4.467v21.267l4.837,4.406h23.215l5.279-4.875c0.618-0.566,1.536-0.51,2.105,0.104c0.569,0.564,0.51,1.534-0.095,2.104
			l-5.294,4.88c-0.521,0.513-1.227,0.769-1.996,0.769H1030.905z"/>
		<path fill="#EFEFEF" d="M1116.151,191.939v27.474c0,0.722-0.261,1.435-0.766,2l-4.423,4.779c-0.561,0.612-1.33,0.974-2.21,0.974
			h-22.488c-0.827,0-1.644-0.361-2.206-0.974l-4.418-4.779c-0.509-0.565-0.827-1.278-0.827-2v-27.474
			c0-0.817,0.671-1.492,1.496-1.492c0.818,0,1.488,0.675,1.488,1.492v27.474l4.467,4.771h22.488h0.054l4.418-4.771v-27.474
			c0-0.817,0.67-1.492,1.496-1.492C1115.533,190.447,1116.151,191.122,1116.151,191.939z"/>
		<path fill="#EFEFEF" d="M1163.2,226.397c-0.57,0.513-1.288,0.769-2.054,0.769h-26.599c-0.826,0-1.496-0.673-1.496-1.486v-33.128
			c0-0.821,0.67-1.43,1.496-1.43h26.183c0.717,0,1.435,0.251,2.008,0.764l4.771,4.411c0.626,0.569,0.979,1.344,0.979,2.214v3.188
			c0,0.817-0.354,1.644-0.979,2.214l-3.691,3.436l4.152,3.849c0.618,0.571,0.923,1.336,0.923,2.157v6.424
			c0,0.813-0.305,1.587-0.923,2.148L1163.2,226.397z M1136.031,194.044v11.921h24.907l4.571-4.267v-3.188v-0.048l-4.779-4.419
			H1136.031z M1161.146,224.184l4.824-4.406v-6.424l-4.672-4.258h-25.268v15.088H1161.146z"/>
		<path fill="#EFEFEF" d="M1224.057,196.771c0.413,0.352,0.566,0.87,0.461,1.339l0.062,0.354v21.254
			c0,0.161-0.062,0.261-0.062,0.418c0.105,0.456-0.048,0.974-0.461,1.335l-5.236,4.875c-0.461,0.413-1.03,0.67-1.643,0.774
			c-0.096,0-0.262,0.047-0.409,0.047h-23.211h-0.109c-0.717-0.047-1.379-0.308-1.901-0.821l-4.77-4.419
			c-0.105-0.047-0.148-0.1-0.206-0.195l-0.304-0.261c-0.369-0.361-0.521-0.879-0.473-1.335v-0.357v-21.267v-0.401
			c-0.049-0.469,0.104-0.987,0.473-1.339l5.279-4.885c0.466-0.417,0.984-0.717,1.598-0.764c0.155-0.057,0.304-0.057,0.413-0.057
			h23.211h0.147c0.727,0.057,1.388,0.308,1.904,0.82l4.78,4.373c0.044,0.095,0.148,0.146,0.2,0.251L1224.057,196.771z
			 M1221.588,219.717v-21.254l-4.764-4.419h-0.056h-23.211l-4.776,4.467v21.206l4.776,4.467h23.211L1221.588,219.717z"/>
	</g>
	<path fill="#5080CC" d="M109,22.439l-99,69.86V227h198V92.299L109,22.439z M95.333,111.954l27.057,32.107l42.046-36.772
		l-9.256-1.593l-0.6-6.641l20.851,1.934l-1.104,21.797l-6.384-0.275l0.241-10.304l-46.65,39.58l-0.008-0.148l-25.553-30.612
		L49.176,174h-8.584L95.333,111.954z M184.95,195.507c0,0-110.668,0.119-147.557-0.01c-5.672-0.02-5.044-6.368,0.208-6.368
		l148.234,0.018C188.712,189.129,188.712,195.507,184.95,195.507z"/>
</g>
</svg>
