<?xml version="1.0" encoding="utf-8"?>
<!-- Generator: Adobe Illustrator 16.0.0, SVG Export Plug-In . SVG Version: 6.00 Build 0)  -->
<!DOCTYPE svg PUBLIC "-//W3C//DTD SVG 1.1//EN" "http://www.w3.org/Graphics/SVG/1.1/DTD/svg11.dtd">
<svg version="1.1" id="Capa_1" xmlns="http://www.w3.org/2000/svg" xmlns:xlink="http://www.w3.org/1999/xlink" x="0px" y="0px"
	 width="1368px" height="936px" viewBox="0 0 1368 936" enable-background="new 0 0 1368 936" xml:space="preserve">
<g>
	<g>
		<path fill="#FFFFFF" d="M895.88,263.25l188.479,49.542l47.531-188.479l-36.197-9.506l-30.895,117.548
			C985.823,104.935,844.875,20.109,684,20.109c-247.346,0-447.891,200.545-447.891,447.891
			c0,247.346,200.545,447.891,447.891,447.891c165.08,0,309.136-89.213,386.831-222.117l-32.357-17.55
			C966.994,797.611,835.003,879.146,684,879.146c-227.053,0-411.146-184.093-411.146-411.146
			c0-227.053,184.093-411.146,411.146-411.146c152.283,0,285.37,82.814,356.302,206.03l-134.916-35.831L895.88,263.25z"/>
		<path fill="#FFFFFF" d="M703.744,666.717v-34.186c32.357-1.828,57.037-11.334,76.05-28.519s28.519-40.036,28.519-66.544
			c0-28.519-7.678-49.542-24.68-62.888c-17.185-15.173-41.864-26.69-78.061-34.186h-1.828v-87.567
			c24.68,3.839,45.703,11.334,66.543,26.69l30.53-41.864c-30.53-21.023-62.888-32.357-97.073-34.186v-22.852h-28.52v22.852
			c-28.519,1.828-53.381,11.334-72.394,28.519s-28.519,40.036-28.519,66.544s7.678,47.531,24.68,60.877
			c15.174,13.345,41.864,24.68,76.05,32.357v89.396c-26.69-3.839-53.381-17.185-79.889-40.036l-34.187,40.036
			c34.187,30.529,72.395,47.531,114.258,51.37v34.186H703.744L703.744,666.717z M705.572,501.089
			c19.012,5.667,30.529,11.335,38.024,17.185c5.667,7.678,9.507,15.174,9.507,26.69c0,11.518-3.84,19.013-13.346,26.69
			c-9.506,7.679-21.023,11.335-34.186,13.346V501.089z M639.028,419.372c-5.667-5.667-9.507-15.174-9.507-24.68
			c0-11.335,3.84-19.013,11.335-26.69c9.506-7.679,19.013-11.335,34.186-13.346v81.9
			C656.029,430.706,644.695,425.039,639.028,419.372z"/>
	</g>
</g>
</svg>
