<?xml version="1.0" encoding="utf-8"?>
<!-- Generator: Adobe Illustrator 16.0.0, SVG Export Plug-In . SVG Version: 6.00 Build 0)  -->
<!DOCTYPE svg PUBLIC "-//W3C//DTD SVG 1.1//EN" "http://www.w3.org/Graphics/SVG/1.1/DTD/svg11.dtd">
<svg version="1.1" id="Capa_1" xmlns="http://www.w3.org/2000/svg" xmlns:xlink="http://www.w3.org/1999/xlink" x="0px" y="0px"
	 width="1368px" height="936px" viewBox="0 0 1368 936" enable-background="new 0 0 1368 936" xml:space="preserve">
<g>
	<path fill="#FFFFFF" d="M931.542,401.24c-0.021-0.174-0.034-0.349-0.06-0.521c-0.123-0.855-0.286-1.709-0.517-2.552
		c-0.002-0.009-0.007-0.017-0.009-0.027c-0.216-0.788-0.491-1.565-0.803-2.334c-0.089-0.22-0.186-0.432-0.281-0.648
		c-0.246-0.555-0.519-1.101-0.815-1.639c-0.129-0.235-0.254-0.47-0.394-0.701c-0.074-0.125-0.134-0.254-0.212-0.379
		c-0.313-0.497-0.656-0.966-1.004-1.43c-0.065-0.086-0.118-0.178-0.185-0.262c-0.529-0.687-1.101-1.324-1.7-1.928
		c-0.112-0.114-0.235-0.22-0.352-0.33c-0.521-0.502-1.061-0.972-1.624-1.414c-0.144-0.112-0.284-0.225-0.432-0.333
		c-0.754-0.559-1.531-1.08-2.343-1.531L608.834,207.875L788.462,94.764l301.142,171.172l-126.826,79.862
		c-9.898,6.23-12.869,19.307-6.637,29.202c6.229,9.897,19.304,12.869,29.201,6.637l156.761-98.709
		c6.302-3.966,10.057-10.952,9.887-18.398c-0.167-7.445-4.23-14.251-10.706-17.932L798.368,51.679
		c-6.783-3.858-15.142-3.668-21.748,0.489L556.479,190.79c-0.045,0.028-0.091,0.058-0.136,0.085l-110.005,69.27
		c-0.051,0.032-0.102,0.064-0.15,0.096L225.898,398.958c-6.302,3.966-10.057,10.952-9.887,18.397
		c0.167,7.446,4.231,14.252,10.707,17.933l342.917,194.919c3.249,1.85,6.857,2.769,10.464,2.769c3.924,0,7.842-1.091,11.282-3.257
		l156.76-98.712c9.898-6.229,12.869-19.307,6.637-29.202c-6.228-9.897-19.307-12.871-29.202-6.637L579.54,587.124L278.398,415.947
		l179.63-113.113L779.21,485.399v241.796c0,7.712,4.19,14.812,10.941,18.54c3.191,1.762,6.715,2.636,10.234,2.636
		c3.927,0,7.844-1.09,11.283-3.257l110.146-69.358c6.158-3.878,9.894-10.644,9.894-17.92V403.721c0-0.125-0.021-0.244-0.025-0.369
		C931.671,402.648,931.624,401.945,931.542,401.24z M821.562,688.838V473.081c0-7.617-4.092-14.646-10.713-18.408L498.688,277.234
		l69.485-43.757l301.14,171.175l-26.366,16.602c-9.897,6.23-12.869,19.307-6.637,29.202c4.023,6.396,10.903,9.896,17.94,9.896
		c3.854,0,7.76-1.053,11.262-3.26l23.843-15.012v204.068L821.562,688.838z"/>
	<path fill="#FFFFFF" d="M1119.539,331.793l-156.76,98.709c-9.898,6.23-12.869,19.307-6.637,29.202
		c4.023,6.396,10.903,9.896,17.94,9.896c3.854,0,7.759-1.052,11.262-3.259l156.76-98.709c9.897-6.23,12.868-19.307,6.637-29.202
		C1142.511,328.531,1129.435,325.559,1119.539,331.793z"/>
	<path fill="#FFFFFF" d="M725.572,579.871l-146.034,91.956L247.644,483.174c-10.16-5.776-23.095-2.228-28.874,7.945
		c-5.779,10.167-2.224,23.095,7.945,28.874l342.917,194.92c3.249,1.849,6.857,2.768,10.464,2.768c3.924,0,7.841-1.091,11.282-3.257
		l156.76-98.712c9.897-6.229,12.869-19.306,6.637-29.202C748.547,576.61,735.468,573.637,725.572,579.871z"/>
	<path fill="#FFFFFF" d="M1119.539,416.498l-156.76,98.709c-9.898,6.23-12.869,19.307-6.637,29.202
		c4.023,6.396,10.903,9.896,17.94,9.896c3.854,0,7.759-1.052,11.262-3.259l156.76-98.709c9.897-6.23,12.868-19.307,6.637-29.202
		C1142.511,413.234,1129.435,410.264,1119.539,416.498z"/>
	<path fill="#FFFFFF" d="M725.572,664.576l-146.034,91.957L247.644,567.879c-10.16-5.776-23.095-2.228-28.874,7.945
		c-5.779,10.167-2.224,23.096,7.945,28.874l342.917,194.92c3.249,1.849,6.857,2.768,10.464,2.768c3.924,0,7.841-1.091,11.282-3.257
		l156.76-98.711c9.897-6.23,12.869-19.307,6.637-29.202C748.547,661.313,735.468,658.342,725.572,664.576z"/>
	<path fill="#FFFFFF" d="M1119.539,501.203l-156.76,98.71c-9.898,6.229-12.869,19.306-6.637,29.202
		c4.023,6.395,10.903,9.896,17.94,9.896c3.854,0,7.759-1.053,11.262-3.259l156.76-98.71c9.897-6.229,12.868-19.307,6.637-29.202
		C1142.511,497.942,1129.435,494.972,1119.539,501.203z"/>
	<path fill="#FFFFFF" d="M725.572,749.282l-146.034,91.956L247.644,652.584c-10.16-5.776-23.095-2.228-28.874,7.946
		c-5.779,10.166-2.224,23.095,7.945,28.874l342.917,194.919c3.249,1.849,6.857,2.768,10.464,2.768c3.924,0,7.841-1.09,11.282-3.257
		l156.76-98.711c9.897-6.23,12.869-19.307,6.637-29.202C748.547,746.021,735.468,743.048,725.572,749.282z"/>
</g>
</svg>
